Run_30002
nRows=4
nColumns=164

# SIMM Motion File Header:
name Run_30002
datacolumns 164
datarows 4
otherdata 1
range 0.04000000 0.07000000
endheader
time	pelvis_tilt	pelvis_list	pelvis_rotation	pelvis_tx	pelvis_ty	pelvis_tz	hip_flexion_r	hip_adduction_r	hip_rotation_r	knee_angle_r	ankle_angle_r	hip_flexion_l	hip_adduction_l	hip_rotation_l	knee_angle_l	ankle_angle_l	lumbar_extension	lumbar_bending	lumbar_rotation	arm_flex_r	arm_add_r	arm_rot_r	elbow_flex_r	pro_sup_r	arm_flex_l	arm_add_l	arm_rot_l	elbow_flex_l	pro_sup_l	subtalar_angle_r	mtp_angle_r	subtalar_angle_l	mtp_angle_l	wrist_flex_r	wrist_dev_r	wrist_flex_l	wrist_dev_l	LASI_tx	LASI_ty	LASI_tz	RASI_tx	RASI_ty	RASI_tz	LPSI_tx	LPSI_ty	LPSI_tz	RPSI_tx	RPSI_ty	RPSI_tz	RTH1_tx	RTH1_ty	RTH1_tz	RTH2_tx	RTH2_ty	RTH2_tz	RTH3_tx	RTH3_ty	RTH3_tz	LTH1_tx	LTH1_ty	LTH1_tz	LTH2_tx	LTH2_ty	LTH2_tz	LTH3_tx	LTH3_ty	LTH3_tz	RTB1_tx	RTB1_ty	RTB1_tz	RTB2_tx	RTB2_ty	RTB2_tz	RTB3_tx	RTB3_ty	RTB3_tz	LTB1_tx	LTB1_ty	LTB1_tz	LTB2_tx	LTB2_ty	LTB2_tz	LTB3_tx	LTB3_ty	LTB3_tz	RCAL_tx	RCAL_ty	RCAL_tz	RTOE_tx	RTOE_ty	RTOE_tz	RMT5_tx	RMT5_ty	RMT5_tz	LCAL_tx	LCAL_ty	LCAL_tz	LTOE_tx	LTOE_ty	LTOE_tz	LMT5_tx	LMT5_ty	LMT5_tz	LACR_tx	LACR_ty	LACR_tz	RACR_tx	RACR_ty	RACR_tz	CLAV_tx	CLAV_ty	CLAV_tz	C7_tx	C7_ty	C7_tz	RUA1_tx	RUA1_ty	RUA1_tz	RUA2_tx	RUA2_ty	RUA2_tz	RUA3_tx	RUA3_ty	RUA3_tz	RLEL_tx	RLEL_ty	RLEL_tz	RMEL_tx	RMEL_ty	RMEL_tz	LUA1_tx	LUA1_ty	LUA1_tz	LUA2_tx	LUA2_ty	LUA2_tz	LUA3_tx	LUA3_ty	LUA3_tz	LLEL_tx	LLEL_ty	LLEL_tz	LMEL_tx	LMEL_ty	LMEL_tz	RFAsuperior_tx	RFAsuperior_ty	RFAsuperior_tz	RFAradius_tx	RFAradius_ty	RFAradius_tz	RFAulna_tx	RFAulna_ty	RFAulna_tz	LFAsuperior_tx	LFAsuperior_ty	LFAsuperior_tz	LFAradius_tx	LFAradius_ty	LFAradius_tz	LFAulna_tx	LFAulna_ty	LFAulna_tz
      0.04000000	     -8.93137272	      1.57158550	     -2.91559886	      0.91838880	      0.98970843	     -0.30466655	    -14.33283961	     -1.99220168	     -8.35537041	    -24.88004672	    -26.37509297	     35.77925475	      4.16942543	     -2.25912533	    -13.92677779	      3.08765509	     -1.96584190	     -2.83703725	     17.17741767	    -11.93962019	    -30.61864298	     -4.14386168	    119.25623236	     83.78439289	    -39.14557541	    -20.68338573	    -11.11217116	    115.70837147	    112.91280591	      0.00000000	      0.00000000	      0.00000000	      0.00000000	      0.00000000	      0.00000000	      0.00000000	      0.00000000	      0.92916244	      1.00877487	     -0.42392066	      0.91383872	      1.00820791	     -0.18647697	      0.76463251	      1.06609994	     -0.36426260	      0.75974924	      1.06717840	     -0.26492505	      0.77145281	      0.78627282	     -0.13612161	      0.79460583	      0.68725896	     -0.15022403	      0.69799884	      0.62755511	     -0.16599955	      0.93935635	      0.83064440	     -0.47513410	      1.02205493	      0.74959045	     -0.45512831	      1.00319504	      0.62687236	     -0.43205910	      0.60023866	      0.42521708	     -0.22464780	      0.51651671	      0.39969020	     -0.18020749	      0.45837631	      0.30028757	     -0.23889950	      1.10491344	      0.45547308	     -0.36805423	      1.06613888	      0.36404477	     -0.42200414	      1.12488068	      0.26802305	     -0.34971931	      0.34481569	      0.32115710	     -0.26632510	      0.39470597	      0.10626951	     -0.28524841	      0.33239053	      0.13176899	     -0.19533055	      1.05809023	      0.11905240	     -0.32844606	      1.27025128	      0.17228298	     -0.31921134	      1.24376952	      0.11540079	     -0.40998382	      0.89183204	      1.50020305	     -0.46517612	      0.94036933	      1.49560634	     -0.18412690	      1.00249622	      1.42581887	     -0.32362095	      0.86154657	      1.52193461	     -0.31098350	      0.93098315	      1.40490794	     -0.07207184	      0.86960024	      1.34662196	     -0.05105119	      0.92816374	      1.29513569	     -0.00613506	      0.91912742	      1.22752707	      0.03397449	      0.87394157	      1.18900287	     -0.01863214	      0.78099289	      1.44218508	     -0.53426436	      0.73682209	      1.39887308	     -0.47102385	      0.71807195	      1.36606137	     -0.55407131	      0.65307403	      1.30139383	     -0.56783757	      0.64684257	      1.27913729	     -0.49640116	      1.02281729	      1.23121726	     -0.01994838	      1.09592390	      1.23708066	     -0.13489376	      1.10441710	      1.17249837	     -0.10822900	      0.76250951	      1.26170866	     -0.58087407	      0.87579691	      1.18549475	     -0.52915237	      0.83198152	      1.15269364	     -0.57630704
      0.05000000	     -8.82005608	      1.15438707	     -3.38264498	      0.91970963	      0.98763588	     -0.30465965	    -13.33273956	     -1.95088380	     -6.79671327	    -29.56254904	    -24.98516084	     34.52159203	      3.64362905	     -2.84214868	    -11.56681718	      3.23241909	     -2.07257487	     -2.38992736	     17.03955973	    -12.33017780	    -30.78727412	     -4.11233248	    119.55220227	     84.35156558	    -39.25593053	    -20.11229752	    -11.59335999	    116.39079908	    112.83765031	      0.00000000	      0.00000000	      0.00000000	      0.00000000	      0.00000000	      0.00000000	      0.00000000	      0.00000000	      0.93086879	      1.00636214	     -0.42291255	      0.91538073	      1.00749446	     -0.18578837	      0.76654567	      1.06297517	     -0.36619923	      0.76053949	      1.06527861	     -0.26580388	      0.77542315	      0.78318713	     -0.13670779	      0.80053471	      0.68444120	     -0.15032043	      0.70525628	      0.62342596	     -0.16537617	      0.93790259	      0.82434273	     -0.47732973	      1.01948781	      0.74058491	     -0.45555437	      0.99859650	      0.62055298	     -0.43259561	      0.60229111	      0.42425270	     -0.22402196	      0.51714684	      0.40365289	     -0.17939060	      0.45322103	      0.30870826	     -0.23878073	      1.10134696	      0.44993762	     -0.36672609	      1.06444096	      0.35861354	     -0.42063223	      1.12506747	      0.26371407	     -0.34845408	      0.34040474	      0.33562225	     -0.26610897	      0.37976297	      0.11845572	     -0.28207771	      0.31876037	      0.14838759	     -0.19216761	      1.06107191	      0.11257558	     -0.32752523	      1.27232200	      0.17064111	     -0.31935608	      1.24644026	      0.11381532	     -0.41009107	      0.89453461	      1.49806525	     -0.46627926	      0.94051108	      1.49369541	     -0.18454290	      1.00340367	      1.42379695	     -0.32370424	      0.86276497	      1.52019780	     -0.31224753	      0.92947748	      1.40377652	     -0.07236420	      0.86722155	      1.34379012	     -0.05387299	      0.92511623	      1.29498581	     -0.00556470	      0.91586697	      1.22729995	      0.03450265	      0.87080572	      1.18867330	     -0.01830803	      0.78400599	      1.43991899	     -0.53618329	      0.73990453	      1.39699539	     -0.47243610	      0.72090452	      1.36379030	     -0.55513340	      0.65610125	      1.29826201	     -0.56859086	      0.64999345	      1.27632342	     -0.49703572	      1.01984976	      1.23004504	     -0.01891183	      1.09312605	      1.23514573	     -0.13392370	      1.10141076	      1.17078844	     -0.10677673	      0.76590332	      1.26009412	     -0.58133030	      0.88045992	      1.18558254	     -0.52963658	      0.83690237	      1.15206847	     -0.57690254
      0.06000000	     -8.61024505	      0.80931238	     -3.75019093	      0.92073792	      0.98506964	     -0.30466147	    -12.24201832	     -1.86329955	     -5.24497469	    -34.55242426	    -23.38311387	     33.46222137	      3.27529008	     -3.41236993	    -10.50598904	      3.57994804	     -2.30434871	     -2.04530170	     16.71235610	    -12.66850738	    -30.90136672	     -3.96493698	    119.63828772	     84.88461466	    -39.21170118	    -19.65705800	    -11.98307514	    117.02975697	    112.68109548	      0.00000000	      0.00000000	      0.00000000	      0.00000000	      0.00000000	      0.00000000	      0.00000000	      0.00000000	      0.93226819	      1.00349728	     -0.42226882	      0.91663468	      1.00629086	     -0.18538616	      0.76793264	      1.05910127	     -0.36750737	      0.76129894	      1.06232020	     -0.26668341	      0.78013776	      0.77926746	     -0.13704379	      0.80717688	      0.68088917	     -0.15013065	      0.71356041	      0.61806846	     -0.16449542	      0.93676133	      0.81836706	     -0.47921180	      1.01796137	      0.73253165	     -0.45613295	      0.99580845	      0.61486650	     -0.43291924	      0.60576683	      0.42266987	     -0.22322634	      0.51937455	      0.40727305	     -0.17859907	      0.44954196	      0.31708785	     -0.23825671	      1.09693717	      0.44444261	     -0.36466671	      1.06128415	      0.35275943	     -0.41933166	      1.12166317	      0.25815683	     -0.34680396	      0.33718214	      0.35047734	     -0.26586519	      0.36650118	      0.13147799	     -0.27931263	      0.30803455	      0.16540814	     -0.18888725	      1.05850800	      0.10621539	     -0.32589729	      1.26969272	      0.16597656	     -0.31913098	      1.24312909	      0.10945781	     -0.41001559	      0.89719332	      1.49523001	     -0.46744944	      0.94019799	      1.49110667	     -0.18500080	      1.00410312	      1.42106773	     -0.32360519	      0.86374232	      1.51787833	     -0.31363950	      0.92741369	      1.40161246	     -0.07258827	      0.86401542	      1.34085413	     -0.05603267	      0.92125540	      1.29392358	     -0.00502678	      0.91175644	      1.22617283	      0.03493789	      0.86690897	      1.18760346	     -0.01810687	      0.78715640	      1.43648652	     -0.53844811	      0.74288124	      1.39400737	     -0.47444054	      0.72401824	      1.36032494	     -0.55677999	      0.65952635	      1.29398883	     -0.57007089	      0.65344576	      1.27224143	     -0.49845927	      1.01623466	      1.22766050	     -0.01770989	      1.08989749	      1.23176210	     -0.13271069	      1.09777293	      1.16766324	     -0.10500467	      0.76979992	      1.25746113	     -0.58220743	      0.88545556	      1.18480019	     -0.53011334	      0.84241051	      1.15052878	     -0.57748516
      0.07000000	     -8.23750894	      0.59583490	     -3.93926249	      0.92152809	      0.98181567	     -0.30471936	    -11.02619757	     -1.80373979	     -3.93310741	    -40.03739954	    -21.40496629	     32.55109823	      3.16571952	     -3.92219843	    -11.10616044	      3.81051672	     -2.69836153	     -1.87548675	     16.10162219	    -12.97805541	    -30.89491705	     -3.67551862	    119.39207933	     85.41430400	    -38.93243504	    -19.41773493	    -12.20578992	    117.56873523	    112.37873165	      0.00000000	      0.00000000	      0.00000000	      0.00000000	      0.00000000	      0.00000000	      0.00000000	      0.00000000	      0.93329688	      0.99991041	     -0.42226092	      0.91764885	      1.00417188	     -0.18527698	      0.76887717	      1.05406548	     -0.36812227	      0.76210007	      1.05772533	     -0.26745751	      0.78599225	      0.77409316	     -0.13696469	      0.81491790	      0.67618173	     -0.14942888	      0.72336003	      0.61097228	     -0.16321033	      0.93624723	      0.81273930	     -0.48029280	      1.01768083	      0.72605749	     -0.45667514	      0.99481010	      0.60949533	     -0.43264314	      0.61140310	      0.42011727	     -0.22202919	      0.52404186	      0.41032099	     -0.17777748	      0.44817816	      0.32523129	     -0.23682956	      1.09093021	      0.43817551	     -0.36179992	      1.05531370	      0.34585917	     -0.41794648	      1.11303004	      0.25045454	     -0.34466605	      0.33625200	      0.36579548	     -0.26547952	      0.35597171	      0.14560288	     -0.27715912	      0.30156484	      0.18286408	     -0.18556627	      1.04815034	      0.10081631	     -0.32311457	      1.26024684	      0.15575751	     -0.31791922	      1.23115878	      0.10039810	     -0.40956932	      0.89963194	      1.49131532	     -0.46867572	      0.93920431	      1.48742746	     -0.18553254	      1.00444086	      1.41726202	     -0.32324095	      0.86431789	      1.51463095	     -0.31517842	      0.92446424	      1.39799254	     -0.07277433	      0.85969651	      1.33754928	     -0.05750178	      0.91625414	      1.29150994	     -0.00452531	      0.90642620	      1.22373106	      0.03527531	      0.86184511	      1.18542331	     -0.01804633	      0.79045079	      1.43133782	     -0.54113718	      0.74561287	      1.38932232	     -0.47730346	      0.72754422	      1.35502684	     -0.55928201	      0.66354242	      1.28797131	     -0.57263377	      0.65727641	      1.26627465	     -0.50104494	      1.01159221	      1.22346977	     -0.01627857	      1.08599063	      1.22620096	     -0.13112702	      1.09310584	      1.16240023	     -0.10276559	      0.77446316	      1.25326047	     -0.58383118	      0.89091663	      1.18269680	     -0.53056331	      0.84879506	      1.14758464	     -0.57801170
